<svg width="14" height="14" viewBox="0 0 14 14" fill="none" xmlns="http://www.w3.org/2000/svg">
<path fill-rule="evenodd" clip-rule="evenodd" d="M5.64824 9.29676C3.63324 9.29676 2.00024 7.66376 2.00024 5.64876C2.00024 3.63376 3.63324 1.99976 5.64824 1.99976C7.66324 1.99976 9.29624 3.63376 9.29624 5.64876C9.29624 7.66376 7.66324 9.29676 5.64824 9.29676ZM13.7072 11.6428L10.5992 8.70676C10.5552 8.66276 10.4992 8.64176 10.4502 8.60776C10.9832 7.74576 11.2962 6.73376 11.2962 5.64876C11.2962 2.53376 8.76324 -0.000244141 5.64824 -0.000244141C2.53324 -0.000244141 0.000244141 2.53376 0.000244141 5.64876C0.000244141 8.76276 2.53324 11.2968 5.64824 11.2968C6.64924 11.2968 7.58824 11.0328 8.40424 10.5738C8.44524 10.6408 8.47624 10.7128 8.53524 10.7708L11.6432 13.7068C12.0332 14.0978 12.6662 14.0978 13.0572 13.7068L13.7072 13.0568C14.0972 12.6668 14.0972 12.0338 13.7072 11.6428Z" fill="#ffffff"/>
</svg>
